<svg width="31" height="37" viewBox="0 0 31 37" fill="none" xmlns="http://www.w3.org/2000/svg">
<path d="M10.625 33.125H4.125C3.23125 33.125 2.46615 32.8068 1.82969 32.1703C1.19323 31.5339 0.875 30.7687 0.875 29.875V7.125C0.875 6.23125 1.19323 5.46615 1.82969 4.82969C2.46615 4.19323 3.23125 3.875 4.125 3.875H10.625V7.125H4.125V29.875H10.625V33.125ZM13.875 36.375V0.625H17.125V36.375H13.875ZM20.375 33.125V29.875H23.625V33.125H20.375ZM20.375 7.125V3.875H23.625V7.125H20.375ZM26.875 33.125V29.875H30.125C30.125 30.7687 29.8068 31.5339 29.1703 32.1703C28.5339 32.8068 27.7687 33.125 26.875 33.125ZM26.875 26.625V23.375H30.125V26.625H26.875ZM26.875 20.125V16.875H30.125V20.125H26.875ZM26.875 13.625V10.375H30.125V13.625H26.875ZM26.875 7.125V3.875C27.7687 3.875 28.5339 4.19323 29.1703 4.82969C29.8068 5.46615 30.125 6.23125 30.125 7.125H26.875Z" fill="#4C00E5"/>
</svg>
