<svg width="24" height="31" viewBox="0 0 24 31" fill="none" xmlns="http://www.w3.org/2000/svg">
<path d="M0.916687 30.25V27.0834H8.83335V23.9167C6.64308 23.9167 4.77606 23.1448 3.23231 21.6011C1.68856 20.0573 0.916687 18.1903 0.916687 16C0.916687 14.3903 1.3587 12.9257 2.24273 11.6063C3.12676 10.2868 4.32085 9.32363 5.82502 8.71669C6.03613 7.81946 6.50453 7.09377 7.23023 6.5396C7.95592 5.98544 8.78058 5.70835 9.70419 5.70835L8.83335 3.25419L10.3375 2.70002L9.78335 1.27502L12.7917 0.166687L13.2667 1.67085L14.7709 1.11669L19.125 12.9917L17.6209 13.5459L18.175 15.05L15.1667 16.1584L14.6917 14.6542L13.1875 15.2084L12.2375 12.5959C11.8417 12.9653 11.3865 13.2424 10.8719 13.4271C10.3573 13.6118 9.83613 13.6778 9.30835 13.625C8.7278 13.5722 8.18683 13.3941 7.68544 13.0906C7.18405 12.7872 6.74863 12.4111 6.37919 11.9625C5.66669 12.3847 5.10592 12.9521 4.6969 13.6646C4.28787 14.3771 4.08335 15.1556 4.08335 16C4.08335 17.3195 4.54516 18.441 5.46877 19.3646C6.39238 20.2882 7.51391 20.75 8.83335 20.75H21.5V23.9167H13.5834V27.0834H23.0834V30.25H0.916687ZM14.6125 12.1209L16.0375 11.5667L13.3459 4.12502L11.8417 4.67919L14.6125 12.1209ZM9.62502 11.25C10.0736 11.25 10.4497 11.0983 10.7531 10.7948C11.0566 10.4913 11.2084 10.1153 11.2084 9.66669C11.2084 9.21808 11.0566 8.84203 10.7531 8.53856C10.4497 8.23509 10.0736 8.08335 9.62502 8.08335C9.17641 8.08335 8.80037 8.23509 8.4969 8.53856C8.19342 8.84203 8.04169 9.21808 8.04169 9.66669C8.04169 10.1153 8.19342 10.4913 8.4969 10.7948C8.80037 11.0983 9.17641 11.25 9.62502 11.25Z" fill="#959595"/>
</svg>
