<svg width="19" height="30" viewBox="0 0 19 30" fill="none" xmlns="http://www.w3.org/2000/svg">
<path d="M18.5 20.3125C18.5 22.768 17.6382 24.8576 15.9145 26.5812C14.1909 28.3048 12.1013 29.1666 9.64579 29.1666C7.19024 29.1666 5.10065 28.3048 3.37704 26.5812C1.65343 24.8576 0.791626 22.768 0.791626 20.3125V7.20831C0.791626 5.43748 1.41142 3.93227 2.651 2.69269C3.89058 1.4531 5.39579 0.833313 7.16663 0.833313C8.93746 0.833313 10.4427 1.4531 11.6823 2.69269C12.9218 3.93227 13.5416 5.43748 13.5416 7.20831V19.6041C13.5416 20.6903 13.1638 21.6111 12.4083 22.3666C11.6527 23.1222 10.7319 23.5 9.64579 23.5C8.55968 23.5 7.63885 23.1222 6.88329 22.3666C6.12774 21.6111 5.74996 20.6903 5.74996 19.6041V6.49998H8.58329V19.6041C8.58329 19.9111 8.68364 20.1649 8.88433 20.3656C9.08503 20.5663 9.33885 20.6666 9.64579 20.6666C9.95274 20.6666 10.2066 20.5663 10.4073 20.3656C10.6079 20.1649 10.7083 19.9111 10.7083 19.6041V7.20831C10.6847 6.21665 10.3364 5.37845 9.6635 4.69373C8.99058 4.00901 8.15829 3.66665 7.16663 3.66665C6.17496 3.66665 5.33676 4.00901 4.65204 4.69373C3.96732 5.37845 3.62496 6.21665 3.62496 7.20831V20.3125C3.60135 21.9889 4.17982 23.4114 5.36038 24.5802C6.54093 25.7489 7.9694 26.3333 9.64579 26.3333C11.2986 26.3333 12.7034 25.7489 13.8604 24.5802C15.0173 23.4114 15.6194 21.9889 15.6666 20.3125V6.49998H18.5V20.3125Z" fill="#9E9E9E"/>
</svg>
